
<svg xmlns="http://www.w3.org/2000/svg" viewBox="0 0 64 64" width="24" height="24" fill="currentColor">
  <path d="M32 2C15.43 2 2 15.43 2 32s13.43 30 30 30 30-13.43 30-30S48.57 2 32 2zm0 4c14.36 0 26 11.64 26 26S46.36 58 32 58 6 46.36 6 32 17.64 6 32 6zm-5 14c-2.76 0-5 2.24-5 5 0 1.38.56 2.63 1.46 3.54L24 36l6 6 6-6-1.46-7.46C36.44 27.63 37 26.38 37 25c0-2.76-2.24-5-5-5s-5 2.24-5 5h-2c0-3.87 3.13-7 7-7s7 3.13 7 7c0 1.86-.75 3.55-1.96 4.79L34 36l-2 2-2-2-2-2-1.04-6.21C26.75 28.55 26 26.86 26 25c0-2.76 2.24-5 5-5s5 2.24 5 5h2c0-3.87-3.13-7-7-7z"/>
</svg>
